<svg xmlns="http://www.w3.org/2000/svg" width="33" height="33" viewBox="0 0 33 33">
  <g id="insta" transform="translate(-276 -4276)">
    <rect id="사각형_100" data-name="사각형 100" width="33" height="33" rx="16.5" transform="translate(276 4276)" fill="#fff"/>
    <g id="그룹_996" data-name="그룹 996" transform="translate(278.795 4278.795)">
      <g id="그룹_997" data-name="그룹 997" transform="translate(4.422 4.423)">
        <path id="패스_2748" data-name="패스 2748" d="M1.221,14.934a4.771,4.771,0,0,0,4.2,4.208,43.3,43.3,0,0,0,4.772.317,43.3,43.3,0,0,0,4.772-.317,4.771,4.771,0,0,0,4.2-4.208,44.85,44.85,0,0,0,.3-4.744,44.848,44.848,0,0,0-.3-4.744,4.771,4.771,0,0,0-4.2-4.208A43.306,43.306,0,0,0,10.191.921a43.306,43.306,0,0,0-4.772.317,4.771,4.771,0,0,0-4.2,4.208,44.861,44.861,0,0,0-.3,4.744A44.863,44.863,0,0,0,1.221,14.934Z" transform="translate(-0.921 -0.921)" fill="#1d1d1d" stroke="#1d1d1d" stroke-width="1"/>
      </g>
      <g id="그룹_998" data-name="그룹 998" transform="translate(9.206 7.418)">
        <path id="패스_2746" data-name="패스 2746" d="M16.5,20.973a4.473,4.473,0,1,1,4.473,4.473A4.473,4.473,0,0,1,16.5,20.973Zm4.473-2.684a2.684,2.684,0,1,0,2.684,2.684A2.684,2.684,0,0,0,20.973,18.289Z" transform="translate(-16.5 -14.711)" fill="#fff" fill-rule="evenodd"/>
        <path id="패스_2747" data-name="패스 2747" d="M31.395,13.5a.895.895,0,0,0,0,1.789h.6a.895.895,0,1,0,0-1.789Z" transform="translate(-22.15 -13.5)" fill="#fff"/>
      </g>
    </g>
  </g>
</svg>
