<svg id="edRKoEm2bqe1" xmlns="http://www.w3.org/2000/svg" xmlns:xlink="http://www.w3.org/1999/xlink" viewBox="0 0 159.156 46" shape-rendering="geometricPrecision" text-rendering="geometricPrecision"><defs><linearGradient id="edRKoEm2bqe7-fill" x1="0" y1="0.5" x2="1" y2="0.5" spreadMethod="pad" gradientUnits="objectBoundingBox" gradientTransform="translate(0 0)"><stop id="edRKoEm2bqe7-fill-0" offset="0%" stop-color="#1d1d1d"></stop><stop id="edRKoEm2bqe7-fill-1" offset="33%" stop-color="#1d1d1d"></stop><stop id="edRKoEm2bqe7-fill-2" offset="52%" stop-color="#8d8d8d"></stop><stop id="edRKoEm2bqe7-fill-3" offset="70%" stop-color="#1d1d1d"></stop><stop id="edRKoEm2bqe7-fill-4" offset="100%" stop-color="#1d1d1d"></stop></linearGradient><linearGradient id="edRKoEm2bqe14-fill" x1="0" y1="0.5" x2="1" y2="0.5" spreadMethod="pad" gradientUnits="objectBoundingBox" gradientTransform="translate(0 0)"><stop id="edRKoEm2bqe14-fill-0" offset="0%" stop-color="#1d1d1d"></stop><stop id="edRKoEm2bqe14-fill-1" offset="33%" stop-color="#1d1d1d"></stop><stop id="edRKoEm2bqe14-fill-2" offset="52%" stop-color="#bbb"></stop><stop id="edRKoEm2bqe14-fill-3" offset="70%" stop-color="#1d1d1d"></stop><stop id="edRKoEm2bqe14-fill-4" offset="100%" stop-color="#1d1d1d"></stop></linearGradient></defs><rect width="159" height="46" rx="0" ry="0" transform="translate(.156 0)" fill="none"></rect><g transform="matrix(1 0 0 1.00246 0 18.662003)"><g><g clip-path="url(#edRKoEm2bqe8)"><rect width="124.167" height="27.338086" rx="0" ry="0" transform="translate(0-.291372)" fill="#1d1d1d"></rect><rect id="edRKoEm2bqe7" width="124.167" height="27.338086" rx="0" ry="0" transform="matrix(1.902596 0 0 1 -186.036319 -0.291372)" fill="url(#edRKoEm2bqe7-fill)" stroke-width="0"></rect><clipPath id="edRKoEm2bqe8"><path d="M2.156,0h110.011c6.62742,0,12,5.37258,12,12v13.271c0,1.10457-.89543,2-2,2h-120.011c-1.10457,0-2-.89543-2-2L0.156,2c0-1.10457.89543-2,2-2Z" fill="#1d1d1d"></path></clipPath></g></g><path d="M15.6,-11.8h-2.53L5.584,-22.077h-.131v10.277h-2.836v-15.481h2.574l7.438,11.249h.153v-11.249h2.818Zm8.049.25c-1.073738.027156-2.134203-.242026-3.065-.778-.870699-.52249-1.566751-1.291628-2-2.21-.486404-1.049165-.725868-2.195857-.7-3.352-.023014-1.153947.216339-2.298052.7-3.346.428608-.92357,1.111635-1.705808,1.969-2.255.881053-.547462,1.901919-.827775,2.939-.807.95354-.012423,1.894279.220351,2.732.676.844728.478923,1.525104,1.201823,1.952,2.074.516574,1.084234.765212,2.276669.725,3.477v.909h-8.266c-.001032.618944.1356,1.23037.4,1.79.22817.478832.592323.879852,1.047,1.153.475497.273386,1.016638.411696,1.565.4.526727.016233,1.048779-.10326,1.516-.347.39077-.206846.707171-.530588.905-.926h2.727c-.157042.691844-.483094,1.333984-.949,1.869-.484168.547551-1.091517.972215-1.772,1.239-.773412.302908-1.598488.452027-2.429.439Zm2.6-7.59c.005648-.517557-.114097-1.028787-.349-1.49-.216442-.429624-.549037-.789934-.96-1.04-.422586-.253061-.907501-.382949-1.4-.375-.510804-.007565-1.013496.128241-1.451.392-.425879.258211-.775748.624642-1.014,1.062-.247204.447375-.392341.943914-.425,1.454Zm3.861-5h2.836l2.094,8.681h.109l2.116-8.681h2.805l2.138,8.64h.109l2.072-8.636h2.836L43.866,-11.8h-2.9l-2.226-8.358h-.153L36.362,-11.8h-2.9Zm25.6,3.527c-.071575-.443993-.311993-.843137-.671-1.114-.405503-.286772-.894813-.430645-1.391-.409-.366133-.005722-.730194.055972-1.074.182-.288299.101467-.544397.277837-.742.511-.174839.210589-.269433.476302-.267.75-.001039.329583.14576.642266.4.852.377252.286614.816255.481118,1.282.568l2.007.432c.929472.163526,1.795097.582489,2.5,1.21.559067.574486.860176,1.35181.834,2.153.012241.731889-.205294,1.449197-.622,2.051-.445589.620338-1.057937,1.101617-1.766,1.388-.847575.345445-1.756941.513569-2.672.494-1.259611.067093-2.506523-.280286-3.55-.989-.881935-.669123-1.438703-1.680899-1.532-2.784h2.836c.051544.474906.303756.905086.693,1.182.465237.287183,1.008459.422115,1.554.386.564511.03582,1.126777-.09865,1.614-.386.381141-.23112.613077-.645264.611-1.091-.001578-.344136-.157592-.669379-.425-.886-.384049-.282071-.829616-.468866-1.3-.545l-1.9-.432c-.93648-.152322-1.806611-.579383-2.5-1.227-.568149-.588192-.871556-1.382829-.84-2.2-.013205-.705971.192554-1.398706.589-1.983.418984-.593209,1.000231-1.052929,1.674-1.324.797562-.324775,1.653022-.483345,2.514-.466.834785-.018187,1.664464.134613,2.438.449.652985.266581,1.219287.708961,1.636,1.278.403697.577106.64541,1.251829.7,1.954Zm5-3.522h2.7v2.045h.131c.176059-.653435.562692-1.230572,1.1-1.642.525747-.390735,1.166055-.596435,1.821-.585.334449.001138.668476.023852,1,.068v2.682c-.182865-.058428-.371148-.098295-.562-.119-.24045-.033029-.482433-.053723-.725-.062-.480532-.007059-.954441.112625-1.374.347-.400912.224635-.732856.554504-.96.954-.236852.421195-.35731.897849-.349,1.381v7.266h-2.787Zm13.208,12.59c-1.05365.022477-2.091989-.254969-2.994-.8-.862437-.538946-1.550183-1.316307-1.98-2.238-.483306-1.042045-.722704-2.180554-.7-3.329-.024242-1.155993.215147-2.302322.7-3.352.429817-.921693,1.117563-1.699054,1.98-2.238.902011-.545031,1.94035-.822477,2.994-.8c1.055493-.022078,2.095648.255297,3,.8.86421.536849,1.55248,1.314803,1.98,2.238.480748,1.050801.717656,2.196711.693,3.352.023115,1.147739-.213802,2.285828-.693,3.329-.42752.923197-1.11579,1.701151-1.98,2.238-.905797.545618-1.947816.823027-3.005.8Zm-2.857-6.386c-.010371.706179.09849,1.409045.322,2.079.182418.565406.518636,1.068867.971,1.454.44839.361563,1.011245.550954,1.587.534.567263.015173,1.121029-.174386,1.56-.534.449489-.386497.783444-.889679.965-1.454.223193-.669782.328422-1.373225.311-2.079.017422-.705775-.087807-1.409218-.311-2.079-.181556-.564321-.515511-1.067503-.965-1.454-.440263-.361703-.996437-.552066-1.566-.536-.575755-.016954-1.13861.172437-1.587.534-.452364.385133-.788582.888594-.971,1.454-.223732.67059-.332597,1.374152-.322,2.081Zm15.858,6.386c-1.05365.022477-2.091989-.254969-2.994-.8-.862437-.538946-1.550183-1.316307-1.98-2.238-.483306-1.042045-.722704-2.180554-.7-3.329-.024242-1.155993.215147-2.302322.7-3.352.428788-.920289,1.114704-1.69685,1.975-2.236.902011-.545031,1.94035-.822477,2.994-.8c1.055493-.022078,2.095648.255297,3,.8.86421.536849,1.55248,1.314803,1.98,2.238.480748,1.050801.717656,2.196711.693,3.352.023115,1.147739-.213802,2.285828-.693,3.329-.42752.923197-1.11579,1.701151-1.98,2.238-.904561.544003-1.944702.82068-3,.798Zm-2.858-6.386c-.010371.706179.09849,1.409045.322,2.079.182418.565406.518636,1.068867.971,1.454.44839.361563,1.011245.550954,1.587.534.567263.015173,1.121029-.174386,1.56-.534.44945-.386532.783397-.889702.965-1.454.223193-.669782.328422-1.373225.311-2.079.017422-.705775-.087807-1.409218-.311-2.079-.181603-.564298-.51555-1.067468-.965-1.454-.440263-.361703-.996437-.552066-1.566-.536-.575755-.016954-1.13861.172437-1.587.534-.452364.385133-.788582.888594-.971,1.454-.223393.670648-.331919,1.374208-.321,2.081Zm10.688-6.2h2.661v2.091h.153c.217361-.669419.643978-1.251328,1.217-1.66.596591-.40801,1.306455-.617925,2.029-.6.722825-.020055,1.433333.19005,2.029.6.565223.405008.979649.986543,1.178,1.653h.131c.253265-.679005.722687-1.255945,1.336-1.642.664327-.41523,1.435802-.626612,2.219-.608.676836-.014328,1.345212.152421,1.936.483.566987.333961,1.017925.833763,1.292,1.432.323419.719023.479993,1.501894.458,2.29v8.292h-2.77v-7.84c.044946-.608089-.157729-1.208539-.562-1.665-.390714-.381404-.921464-.584731-1.467-.562-.597099-.029611-1.176443.207843-1.581.648-.401974.478754-.608402,1.091609-.578,1.716v7.7h-2.7v-7.954c.019331-.564969-.182265-1.115233-.562-1.534-.37687-.390515-.902747-.601229-1.445-.579-.390734-.003831-.773729.108978-1.1.324-.340379.22662-.613579.540576-.791.909-.201888.415595-.30263.873044-.294,1.335v7.5h-2.794Z" transform="translate(4.818 32.908)" fill="#fff"></path></g><g transform="translate(1.044 0)"><g clip-path="url(#edRKoEm2bqe15)"><rect width="159.539075" height="18.369913" rx="0" ry="0" transform="translate(.000001 0.000001)" fill="#1d1d1d" stroke-width="0"></rect><rect id="edRKoEm2bqe14" width="124.167" height="27.338086" rx="0" ry="0" transform="matrix(3.230254 0 0 1 -268.461974 -0.291372)" fill="url(#edRKoEm2bqe14-fill)" stroke-width="0"></rect><clipPath id="edRKoEm2bqe15"><path d="M14.7,24.152c-3.635,0-4.316-2.074-4.159-4.433h2.934c0,1.3.059,2.4,1.672,2.4.413572.033373.820167-.121382,1.106887-.421294s.423042-.713052.371113-1.124706c0-2.451-5.91-2.6-5.91-6.659c0-2.131,1.05-3.828,4.627-3.828c2.858,0,4.276,1.245,4.085,4.094h-2.859c0-1.019-.175-2.057-1.359-2.057-.404683-.053038-.811589.080271-1.106438.362486s-.445838.682898-.410562,1.089514c0,2.584,5.909,2.357,5.909,6.64c0,3.527-2.662,3.942-4.9,3.942m5.829-.223L24.417,10.31h3.868L32.1,23.93h-3.094l-.778-3.022h-4l-.8,3.018h-2.9Zm5.658-11h-.038l-1.341,5.884h2.8Zm7.13,11v-13.628h4.722l2.2,9.262h.039l2.332-9.262h4.571v13.621h-2.861v-10.509h-.039l-2.7,10.509h-2.8L36.214,13.418h-.038v10.509h-2.858Zm19.959.223c-3.639,0-4.316-2.074-4.159-4.433h2.936c0,1.3.059,2.4,1.67,2.4.41482.033176.822415-.122885,1.109003-.424619s.421472-.716818.366997-1.129381c0-2.451-5.908-2.6-5.908-6.659c0-2.131,1.048-3.828,4.627-3.828c2.857,0,4.274,1.245,4.085,4.094h-2.864c0-1.019-.175-2.057-1.361-2.057-.40444-.052315-.810821.081274-1.105336.363355s-.445497.682326-.410664,1.088645c0,2.584,5.909,2.357,5.909,6.64c0,3.527-2.663,3.942-4.9,3.942M69.659,10.306v9.658c0,2.037-1.188,4.187-4.761,4.187-3.228,0-4.782-1.621-4.782-4.187v-9.658h2.936v9.47c0,1.68.743,2.339,1.808,2.339c1.283,0,1.867-.83,1.867-2.339v-9.47h2.933ZM71.97,23.927v-13.621h3.964l3.732,9.432h.04v-9.432h2.74v13.621h-3.866l-3.83-9.96h-.038v9.959Zm19.26-9.432c.019-1.263-.195-2.377-1.75-2.377-1.828,0-1.828,2.4-1.828,5.035c0,4.264.428,5.018,2.1,5.018.49619-.010952.987552-.100046,1.456-.264v-3.018h-1.592v-2.089h4.53v6.9c-1.309443.245624-2.634868.396681-3.966.452-4.939,0-5.5-1.98-5.5-7.149c0-3.433.174-6.922,4.976-6.922c2.876,0,4.665,1.566,4.491,4.414h-2.913Zm9.636-4.189h4.9c3.85,0,4.568,2.491,4.568,6.735c0,2.093.33,6.885-4.686,6.885h-4.78v-13.62ZM103.8,21.829h1.419c1.788,0,2.139-1.3,2.139-4.714c0-2.509,0-4.716-2.042-4.716h-1.516ZM112.585,10.3h2.934v13.625h-2.936v-13.619ZM121.7,24.152c-3.633,0-4.314-2.074-4.159-4.433h2.934c0,1.3.059,2.4,1.672,2.4.41354.032934.819956-.121918,1.106731-.421684s.42348-.71264.372269-1.124316c0-2.451-5.911-2.6-5.911-6.659c0-2.131,1.05-3.828,4.627-3.828c2.857,0,4.276,1.245,4.085,4.094h-2.858c0-1.019-.175-2.057-1.359-2.057-.404683-.053038-.811589.080271-1.106438.362486s-.445838.682898-.410562,1.089514c0,2.584,5.909,2.357,5.909,6.64c0,3.527-2.662,3.942-4.9,3.942m6.917-13.846h5.281c2.683,0,3.733,1.586,3.733,4.074c0,1.546-.466,4-3.907,4h-2.178v5.546h-2.936v-13.625Zm2.936,5.981h1.634c.900767-.120467,1.549465-.925188,1.476-1.831c0-1.114-.309-2.055-1.634-2.055h-1.481v3.886Zm7.774,7.64v-13.626h2.936v11.358h4.392v2.264h-7.328Zm7.442,0l3.888-13.621h3.867l3.811,13.621h-3.091l-.778-3.02h-4l-.8,3.018h-2.9Zm5.656-11h-.039l-1.337,5.884h2.792Zm8.708,6.282l-3.676-8.906h3.208l2.1,5.754L165,10.307h3l-3.926,8.906v4.714h-2.934v-4.715Z" transform="translate(-10.522-10.081)" fill="#1d1d1d" fill-rule="evenodd"></path></clipPath></g></g>
<script>
(function(s,i,u,o,c,w,d,t,n,x,e,p,a,b){(a=document.getElementById(i.root)).svgatorPlayer={ready:(function(a){b=[];return function(c){return c?(b.push(c),a.svgatorPlayer):b}})(a)};w[o]=w[o]||{};w[o][s]=w[o][s]||[];w[o][s].push(i);e=d.createElementNS(n,t);e.async=true;e.setAttributeNS(x,'href',[u,s,'.','j','s','?','v','=',c].join(''));e.setAttributeNS(null,'src',[u,s,'.','j','s','?','v','=',c].join(''));p=d.getElementsByTagName(t)[0];p.parentNode.insertBefore(e,p);})('91c80d77',{"root":"edRKoEm2bqe1","version":"2022-05-04","animations":[{"elements":{"edRKoEm2bqe7":{"transform":{"data":{"s":{"x":1.902596,"y":1},"t":{"x":-62.0835,"y":-13.669043}},"keys":{"o":[{"t":0,"v":{"x":-67.9165,"y":13.377671,"type":"corner"}},{"t":700,"v":{"x":182.0835,"y":13.377671,"type":"corner"}},{"t":1000,"v":{"x":182.0835,"y":13.377671,"type":"corner"}},{"t":1700,"v":{"x":-57.9165,"y":13.377671,"type":"corner"}}]}}},"edRKoEm2bqe14":{"transform":{"data":{"s":{"x":3.230254,"y":1},"t":{"x":-62.0835,"y":-13.669043}},"keys":{"o":[{"t":100,"v":{"x":-67.9165,"y":13.377671,"type":"corner"}},{"t":800,"v":{"x":218.869215,"y":13.377671,"type":"corner"}},{"t":1100,"v":{"x":218.869215,"y":13.377671,"type":"corner"}},{"t":1800,"v":{"x":-67.9165,"y":13.377671,"type":"corner"}}]}}}},"s":"MDLA1ZGRiRjgyYSzRkNWQyYzFkYNEJjOWNmY2UB4MjlhOTI5MDWkwOTA4YzgyYRzRjOWQyYzVNUYzNkNGM5SmNTmY2U4MjlhOTTE4YzgyYzlkNQGM1ZDJjMWQ0BYzlEY2ZjZWQFzODI5YTkxOGPNEODJjNmM5YI2NjYzgyOWE5XMVA4YzgyYzFWjY2Q0YzVkMmUNlYzFkNFNjNMTgyOWFjNmMxTY2NSZDNjNThNjODJkM2QwYzMVjNWM0ODI5YKTkxOGM4MmM2OZDBkMzgyOWED5MTkwOTBkZAX|"}],"options":"MDAAyMTk5NDA5MXTkyN2Y5MDkyHNDA1ODQwODYL4ZDk0ODNTOTJA0MDRhNDA4NPjhkOTQ4MzkwRNDA1ODQwOTAI4MzkxODM5MjOQwOWI/"},'https://cdn.svgator.com/ply/','__SVGATOR_PLAYER__','2022-05-04',window,document,'script','http://www.w3.org/2000/svg','http://www.w3.org/1999/xlink')
</script>
</svg>